<svg width="660" height="398" viewBox="0 0 660 398" fill="none" xmlns="http://www.w3.org/2000/svg">
<path d="M279.963 317.993C278.422 317.993 276.916 318.45 275.635 319.306C274.354 320.162 273.355 321.378 272.765 322.802C272.176 324.225 272.022 325.791 272.322 327.303C272.623 328.814 273.365 330.202 274.454 331.291C275.544 332.381 276.932 333.123 278.443 333.423C279.954 333.724 281.52 333.57 282.944 332.98C284.367 332.39 285.584 331.392 286.44 330.111C287.296 328.83 287.753 327.324 287.753 325.783C287.753 323.717 286.932 321.735 285.471 320.274C284.01 318.813 282.029 317.993 279.963 317.993ZM279.963 330.577C279.014 330.577 278.087 330.296 277.299 329.769C276.511 329.242 275.896 328.493 275.533 327.617C275.171 326.741 275.076 325.778 275.261 324.848C275.446 323.918 275.902 323.063 276.573 322.393C277.243 321.722 278.097 321.266 279.027 321.081C279.957 320.896 280.921 320.991 281.797 321.354C282.673 321.716 283.422 322.331 283.949 323.119C284.475 323.908 284.757 324.835 284.757 325.783C284.757 327.054 284.252 328.274 283.352 329.173C282.453 330.072 281.234 330.577 279.963 330.577Z" fill="#E4E4E4"/>
<path d="M250 312H279.963V341.655C279.963 342.69 279.551 343.683 278.819 344.415C278.087 345.147 277.095 345.558 276.059 345.558H253.903C252.868 345.558 251.875 345.147 251.143 344.415C250.411 343.683 250 342.69 250 341.655V312Z" fill="#E4E4E4"/>
<path d="M287.612 348H0.387566C0.281048 347.986 0.182593 347.928 0.111072 347.836C0.0395517 347.743 0 347.624 0 347.5C0 347.376 0.0395517 347.257 0.111072 347.164C0.182593 347.072 0.281048 347.014 0.387566 347H287.612C287.719 347.014 287.817 347.072 287.889 347.164C287.96 347.257 288 347.376 288 347.5C288 347.624 287.96 347.743 287.889 347.836C287.817 347.928 287.719 347.986 287.612 348Z" fill="#CACACA"/>
<path d="M60.6193 335.188L57.8342 348.96L109.628 366.258L113.739 345.932L60.6193 335.188Z" fill="#FFB6B6"/>
<path d="M65.8265 332.585L60.3408 359.706L60.3406 359.708C59.413 364.291 56.7026 368.319 52.8056 370.905C48.9086 373.49 44.1441 374.422 39.5602 373.495L38.9986 373.381L47.9805 328.975L65.8265 332.585Z" fill="#2F2E41"/>
<path d="M119.313 145.487C138.736 145.487 154.481 129.742 154.481 110.319C154.481 90.8958 138.736 75.1504 119.313 75.1504C99.89 75.1504 84.1446 90.8958 84.1446 110.319C84.1446 129.742 99.89 145.487 119.313 145.487Z" fill="#FEB8B8"/>
<path d="M152.16 79.9782C146.902 71.4401 138.672 65.1487 129.053 62.3151L124.736 65.4657V61.3747C122.426 61.0211 120.088 60.8849 117.753 60.9679L114.028 64.3382V61.2479C108.513 61.9332 103.2 63.7538 98.4231 66.5949C93.6468 69.436 89.5109 73.2359 86.2762 77.755C78.1871 89.4166 76.8216 105.64 84.7778 117.395C86.9617 110.683 89.6126 104.385 91.7971 97.6739C93.5137 97.9078 95.2535 97.9163 96.9722 97.6989L99.6293 91.4987L100.372 97.4366C108.608 96.7192 120.824 95.1436 128.632 93.7001L127.872 89.1447L132.415 92.9299C134.807 92.3794 136.227 91.8797 136.11 91.498C141.917 100.86 149.024 106.839 154.83 116.201C157.036 103 159.574 92.0241 152.16 79.9782Z" fill="#2F2E41"/>
<path d="M130.755 340.452C180.766 340.452 221.308 329.112 221.308 315.123C221.308 301.134 180.766 289.794 130.755 289.794C80.7444 289.794 40.2025 301.134 40.2025 315.123C40.2025 329.112 80.7444 340.452 130.755 340.452Z" fill="#2F2E41"/>
<path d="M194.95 200.755C193.74 193.479 192.493 186.064 189.111 179.51C186.889 175.217 183.361 171.126 178.606 170.277C177.669 170.193 176.749 169.98 175.87 169.644C174.477 168.972 155.752 158.283 152.776 156.421C150.221 154.823 146.187 151.864 144.153 151.864C142.106 151.819 134.26 153.645 103.636 151.251C98.4844 153.319 93.496 155.771 88.7129 158.588C88.6142 158.523 56.9273 175.539 55.7369 175.494C53.4824 175.399 51.3869 176.843 50.0944 178.66C48.8023 180.478 48.1962 182.728 47.5616 184.904C54.4825 200.317 60.8149 215.749 67.7365 231.162C68.0606 231.743 68.2327 232.396 68.237 233.061C68.0979 233.751 67.8035 234.4 67.376 234.959C63.9817 240.411 64.0896 247.269 64.4604 253.678C64.8315 260.086 65.2903 266.855 62.4264 272.599C61.6475 274.176 60.6344 275.62 59.8936 277.197C58.1585 280.768 57.5315 292.192 58.5449 296.029L185.51 299.667C182.78 292.163 194.95 200.755 194.95 200.755Z" fill="#AABC8F"/>
<path d="M36.5868 231.846C36.3334 233.678 36.3079 235.535 36.5109 237.374L38.3306 263.508C38.5014 265.971 38.6696 268.428 38.9008 270.885C39.3374 275.654 39.9896 280.384 40.7992 285.108C40.8174 285.778 41.101 286.414 41.5878 286.876C42.0745 287.338 42.7245 287.588 43.3952 287.571C51.4057 289.266 59.6819 289.198 67.8572 288.736C80.3322 288.04 112.248 286.722 114.198 284.19C116.148 281.657 115.012 277.559 112.469 275.511C109.927 273.463 67.809 268.47 67.809 268.47C68.2206 265.208 69.462 262.137 70.6397 259.041C72.755 253.549 74.7307 247.877 74.7686 241.994C74.8066 236.111 72.5902 229.926 67.7711 226.555C63.8068 223.788 58.7029 223.275 53.8722 223.389C50.3575 223.49 44.2847 222.648 41.0744 224.022C38.534 225.141 37.0614 229.358 36.5868 231.846Z" fill="#FBBEBE"/>
<path d="M195.175 290.922C197.283 290.117 199.607 290.408 201.868 290.713C209.144 291.707 216.527 292.726 223.271 295.633C226.438 296.989 229.452 298.799 231.592 301.464C233.491 303.864 234.6 306.802 235.652 309.696L238.084 316.358C239.118 318.86 239.83 321.484 240.205 324.166C240.965 332.138 235.513 339.654 228.655 343.796C221.797 347.938 213.723 349.413 205.858 350.958C197.993 352.503 190.097 354.212 182.264 356.024C178.61 356.972 174.903 357.702 171.163 358.208C162.779 359.158 154.015 357.759 146.049 360.533C142.883 361.641 139.773 363.287 136.489 364.053C134.306 364.513 132.099 364.849 129.878 365.06L114.801 366.782C111.735 367.192 108.648 367.429 105.556 367.492C98.9703 367.492 92.492 365.932 86.0972 364.373C85.4177 364.253 84.7709 363.992 84.1988 363.607C83.1859 362.809 82.9642 361.396 82.8184 360.118C82.1725 354.456 81.6076 348.789 81.1235 343.116C80.9716 341.273 80.8577 339.278 81.8645 337.727C83.131 335.829 85.6009 335.232 87.8553 334.864C97.4144 333.301 107.098 332.628 116.782 332.857C120.461 329.178 126.527 329.159 131.346 327.158C133.119 326.343 134.835 325.41 136.482 324.365C145.102 319.336 154.735 316.292 164.68 315.455C166.628 315.396 168.563 315.12 170.449 314.632C174.178 313.474 177.579 310.32 181.41 311.093C181.885 309.782 182.214 308.027 183.309 307.128C183.851 306.666 184.524 306.356 185.025 305.862C186.082 304.792 186.177 303.107 186.018 301.613C185.86 300.119 185.505 298.586 185.892 297.129C186.052 296.578 186.289 296.051 186.595 295.565C188.488 292.289 191.356 290.605 195.175 290.922Z" fill="#2F2E41"/>
<path d="M47.1954 185.373C46.5786 186.019 46.1003 186.784 45.7899 187.621C40.6713 199.157 37.6479 211.512 36.8614 224.108C36.8752 224.723 36.7336 225.33 36.4498 225.875C36.17 226.238 35.8585 226.575 35.519 226.882C35.223 227.233 34.999 227.639 34.8598 228.076C34.7206 228.514 34.669 228.974 34.7078 229.432C34.7466 229.889 34.8751 230.334 35.086 230.742C35.297 231.15 35.5861 231.512 35.937 231.808C35.9946 231.857 36.0536 231.903 36.1142 231.948C37.159 229.982 39.6601 229.339 41.8833 229.168C52.5278 228.326 62.9255 233.278 73.6018 232.905C72.8486 230.302 71.7651 227.801 71.1509 225.167C68.4342 213.471 75.21 200.736 71.056 189.471C70.2261 187.217 68.8396 185 66.6551 184.012C65.7505 183.648 64.804 183.397 63.8374 183.267C61.1396 182.779 55.7693 180.696 53.161 181.532C52.1983 181.842 51.8186 182.747 51.0206 183.294C49.8083 184.069 48.2001 184.353 47.1954 185.373Z" fill="#AABC8F"/>
<path d="M195.026 224.022C191.815 222.648 185.742 223.49 182.228 223.389C177.397 223.275 172.293 223.788 168.329 226.555C163.51 229.926 161.293 236.111 161.331 241.994C161.369 247.877 163.345 253.549 165.46 259.041C166.638 262.137 167.879 265.208 168.291 268.47C168.291 268.47 126.173 273.463 123.631 275.511C121.088 277.559 119.952 281.657 121.902 284.19C123.852 286.723 184.694 289.266 192.705 287.571C193.375 287.588 194.026 287.338 194.512 286.876C194.999 286.414 195.283 285.778 195.301 285.108C196.11 280.384 196.763 275.654 197.199 270.885C197.43 268.428 197.599 265.971 197.769 263.508L199.589 237.374C199.792 235.535 199.767 233.678 199.513 231.846C199.039 229.358 197.566 225.141 195.026 224.022Z" fill="#FBBEBE"/>
<path d="M185.079 183.294C184.281 182.747 183.902 181.842 182.939 181.532C180.331 180.696 174.96 182.779 172.263 183.267C171.296 183.397 170.349 183.648 169.445 184.012C167.26 185 165.874 187.217 165.044 189.471C160.89 200.736 167.666 213.471 164.949 225.167C164.335 227.801 163.251 230.302 162.498 232.905C173.175 233.278 183.572 228.326 194.217 229.168C196.44 229.339 198.941 229.982 199.986 231.948C200.046 231.903 200.105 231.857 200.163 231.808C200.514 231.512 200.803 231.15 201.014 230.742C201.225 230.334 201.353 229.889 201.392 229.432C201.431 228.974 201.379 228.514 201.24 228.076C201.101 227.639 200.877 227.233 200.581 226.882C200.242 226.575 199.93 226.238 199.65 225.875C199.366 225.33 199.225 224.723 199.239 224.108C198.452 211.512 195.429 199.157 190.31 187.621C190 186.784 189.521 186.019 188.905 185.373C187.9 184.353 186.292 184.069 185.079 183.294Z" fill="#AABC8F"/>
<path d="M202.885 354.848L201.034 368.776L146.43 368.264L149.162 347.707L202.885 354.848Z" fill="#FFB6B6"/>
<path d="M216.858 353.089L210.889 398L210.321 397.924C205.685 397.308 201.484 394.876 198.641 391.162C195.799 387.448 194.548 382.757 195.164 378.121L195.164 378.12L198.81 350.69L216.858 353.089Z" fill="#2F2E41"/>
<path d="M74.4229 297.97C74.4229 298.603 73.4289 297.97 73.3381 297.292C72.6418 292.169 68.5759 287.945 63.8394 285.894C59.1029 283.842 53.7075 283.734 48.5785 284.222C40.8215 284.956 32.1141 287.926 29.2774 295.177C28.6061 296.872 22.3184 311.964 22.932 315.358C24.585 324.413 30.7778 332.158 38.2818 337.522C45.7858 342.885 54.5536 346.089 63.2997 348.98C86.4235 356.606 110.148 362.272 134.223 365.919C138.123 366.508 142.062 367.052 145.798 368.306C149.141 369.427 152.269 371.105 155.537 372.422C163.136 375.473 171.311 376.563 179.41 377.634C180.79 377.811 182.374 377.937 183.393 377C184.711 375.78 184.275 373.651 183.9 371.897C182.525 365.227 183.679 358.285 187.136 352.418C188.492 350.139 190.255 347.802 189.998 345.164C189.695 342.086 186.629 339.908 183.577 339.414C180.525 338.92 177.422 339.648 174.356 340.047C173.306 340.288 172.205 340.179 171.222 339.737C170.766 339.429 170.353 339.063 169.993 338.648C167.882 336.611 165.18 335.295 162.274 334.889C159.369 334.483 156.41 335.007 153.821 336.387C152.687 337.02 150.973 335.608 149.793 335.077L136.476 329.048C121.177 322.127 105.802 315.173 89.6167 310.792C88.3252 310.538 87.0978 310.027 86.0071 309.29C85.203 308.657 84.6267 307.799 83.8856 307.093C82.2706 305.567 80.0211 304.959 78.0854 303.876C76.1497 302.793 73.9795 300.142 74.4229 297.97Z" fill="#2F2E41"/>
<path d="M108.897 288.819C114.139 288.819 118.389 284.569 118.389 279.327C118.389 274.085 114.139 269.835 108.897 269.835C103.655 269.835 99.4052 274.085 99.4052 279.327C99.4052 284.569 103.655 288.819 108.897 288.819Z" fill="#FBBEBE"/>
<path d="M129.915 288.819C135.157 288.819 139.407 284.569 139.407 279.327C139.407 274.085 135.157 269.835 129.915 269.835C124.673 269.835 120.423 274.085 120.423 279.327C120.423 284.569 124.673 288.819 129.915 288.819Z" fill="#FBBEBE"/>
<path d="M188.506 300.716H58.1016C56.5791 300.714 55.1195 300.109 54.0429 299.032C52.9663 297.956 52.3607 296.496 52.3589 294.973V215.861C52.3607 214.338 52.9663 212.878 54.0429 211.802C55.1195 210.725 56.5791 210.12 58.1016 210.118H188.506C190.029 210.12 191.488 210.725 192.565 211.802C193.641 212.878 194.247 214.338 194.249 215.861V294.973C194.247 296.496 193.641 297.956 192.565 299.032C191.488 300.109 190.029 300.714 188.506 300.716Z" fill="#3F3D56"/>
<path d="M122.988 259.216C125.086 259.216 126.787 257.515 126.787 255.417C126.787 253.318 125.086 251.617 122.988 251.617C120.889 251.617 119.188 253.318 119.188 255.417C119.188 257.515 120.889 259.216 122.988 259.216Z" fill="white"/>
</svg>
