<svg width="385" height="461" viewBox="0 0 385 461" fill="none" xmlns="http://www.w3.org/2000/svg">
<mask id="mask0_90_109" style="mask-type:alpha" maskUnits="userSpaceOnUse" x="0" y="0" width="385" height="461">
<rect width="385" height="461" fill="#D9D9D9"/>
</mask>
<g mask="url(#mask0_90_109)">
<path d="M334.963 334.993C333.422 334.993 331.916 335.45 330.635 336.306C329.354 337.162 328.355 338.378 327.765 339.802C327.176 341.225 327.022 342.791 327.322 344.303C327.623 345.814 328.365 347.202 329.454 348.291C330.544 349.381 331.932 350.123 333.443 350.423C334.954 350.724 336.52 350.57 337.944 349.98C339.367 349.39 340.584 348.392 341.44 347.111C342.296 345.83 342.753 344.324 342.753 342.783C342.753 340.717 341.932 338.735 340.471 337.274C339.01 335.813 337.029 334.993 334.963 334.993ZM334.963 347.577C334.014 347.577 333.087 347.296 332.299 346.769C331.511 346.242 330.896 345.493 330.533 344.617C330.171 343.741 330.076 342.778 330.261 341.848C330.446 340.918 330.902 340.063 331.573 339.393C332.243 338.722 333.097 338.266 334.027 338.081C334.957 337.896 335.921 337.991 336.797 338.354C337.673 338.716 338.422 339.331 338.949 340.119C339.475 340.908 339.757 341.835 339.757 342.783C339.757 344.054 339.252 345.274 338.352 346.173C337.453 347.072 336.234 347.577 334.963 347.577Z" fill="#E4E4E4"/>
<path d="M305 329H334.963V358.655C334.963 359.69 334.551 360.683 333.819 361.415C333.087 362.147 332.095 362.558 331.059 362.558H308.903C307.868 362.558 306.875 362.147 306.143 361.415C305.411 360.683 305 359.69 305 358.655V329Z" fill="#E4E4E4"/>
<path d="M342.612 365H55.3876C55.281 364.986 55.1826 364.928 55.1111 364.836C55.0396 364.743 55 364.624 55 364.5C55 364.376 55.0396 364.257 55.1111 364.164C55.1826 364.072 55.281 364.014 55.3876 364H342.612C342.719 364.014 342.817 364.072 342.889 364.164C342.96 364.257 343 364.376 343 364.5C343 364.624 342.96 364.743 342.889 364.836C342.817 364.928 342.719 364.986 342.612 365Z" fill="#CACACA"/>
<path d="M115.619 352.188L112.834 365.96L164.628 383.258L168.739 362.932L115.619 352.188Z" fill="#FFB6B6"/>
<path d="M120.827 349.585L115.341 376.706L115.341 376.708C114.413 381.291 111.703 385.319 107.806 387.905C103.909 390.49 99.1441 391.422 94.5602 390.495L93.9986 390.381L102.981 345.975L120.827 349.585Z" fill="#2F2E41"/>
<path d="M174.313 162.487C193.736 162.487 209.481 146.742 209.481 127.319C209.481 107.896 193.736 92.1504 174.313 92.1504C154.89 92.1504 139.145 107.896 139.145 127.319C139.145 146.742 154.89 162.487 174.313 162.487Z" fill="#FEB8B8"/>
<path d="M207.16 96.9782C201.902 88.4401 193.672 82.1487 184.053 79.3151L179.736 82.4657V78.3747C177.426 78.0211 175.088 77.8849 172.753 77.9679L169.028 81.3382V78.2479C163.513 78.9332 158.2 80.7538 153.423 83.5949C148.647 86.436 144.511 90.2359 141.276 94.755C133.187 106.417 131.822 122.64 139.778 134.395C141.962 127.683 144.613 121.385 146.797 114.674C148.514 114.908 150.253 114.916 151.972 114.699L154.629 108.499L155.372 114.437C163.608 113.719 175.824 112.144 183.632 110.7L182.872 106.145L187.415 109.93C189.807 109.379 191.227 108.88 191.11 108.498C196.917 117.86 204.024 123.839 209.83 133.201C212.036 120 214.574 109.024 207.16 96.9782Z" fill="#2F2E41"/>
<path d="M185.755 357.452C235.766 357.452 276.308 346.112 276.308 332.123C276.308 318.134 235.766 306.794 185.755 306.794C135.744 306.794 95.2025 318.134 95.2025 332.123C95.2025 346.112 135.744 357.452 185.755 357.452Z" fill="#2F2E41"/>
<path d="M249.95 217.755C248.74 210.479 247.493 203.064 244.111 196.51C241.889 192.217 238.361 188.126 233.606 187.277C232.669 187.193 231.749 186.98 230.87 186.644C229.477 185.972 210.752 175.283 207.776 173.421C205.221 171.823 201.187 168.864 199.153 168.864C197.106 168.819 189.26 170.645 158.636 168.251C153.484 170.319 148.496 172.771 143.713 175.588C143.614 175.523 111.927 192.539 110.737 192.494C108.482 192.399 106.387 193.843 105.094 195.66C103.802 197.478 103.196 199.728 102.562 201.904C109.483 217.317 115.815 232.749 122.736 248.162C123.061 248.743 123.233 249.396 123.237 250.061C123.098 250.751 122.803 251.4 122.376 251.959C118.982 257.411 119.09 264.269 119.46 270.678C119.832 277.086 120.29 283.855 117.426 289.599C116.647 291.176 115.634 292.62 114.894 294.197C113.159 297.768 112.532 309.192 113.545 313.029L240.51 316.667C237.78 309.163 249.95 217.755 249.95 217.755Z" fill="#AABC8F"/>
<path d="M91.5868 248.846C91.3334 250.678 91.3079 252.535 91.5109 254.374L93.3306 280.508C93.5014 282.971 93.6696 285.428 93.9008 287.885C94.3374 292.654 94.9896 297.384 95.7992 302.108C95.8174 302.778 96.101 303.414 96.5878 303.876C97.0745 304.338 97.7245 304.588 98.3952 304.571C106.406 306.266 114.682 306.198 122.857 305.736C135.332 305.04 167.248 303.722 169.198 301.19C171.148 298.657 170.012 294.559 167.469 292.511C164.927 290.463 122.809 285.47 122.809 285.47C123.221 282.208 124.462 279.137 125.64 276.041C127.755 270.549 129.731 264.877 129.769 258.994C129.807 253.111 127.59 246.926 122.771 243.555C118.807 240.788 113.703 240.275 108.872 240.389C105.358 240.49 99.2847 239.648 96.0744 241.022C93.534 242.141 92.0614 246.358 91.5868 248.846Z" fill="#FBBEBE"/>
<path d="M250.175 307.922C252.283 307.117 254.607 307.408 256.868 307.713C264.144 308.707 271.527 309.726 278.271 312.633C281.438 313.989 284.452 315.799 286.592 318.464C288.491 320.864 289.6 323.802 290.652 326.696L293.084 333.358C294.118 335.86 294.83 338.484 295.205 341.166C295.965 349.138 290.513 356.654 283.655 360.796C276.797 364.938 268.723 366.413 260.858 367.958C252.992 369.503 245.097 371.212 237.264 373.024C233.61 373.972 229.903 374.702 226.163 375.208C217.779 376.158 209.015 374.759 201.049 377.533C197.883 378.641 194.773 380.287 191.489 381.053C189.306 381.513 187.099 381.849 184.878 382.06L169.801 383.782C166.735 384.192 163.648 384.429 160.556 384.492C153.97 384.492 147.492 382.932 141.097 381.373C140.418 381.253 139.771 380.992 139.199 380.607C138.186 379.809 137.964 378.396 137.818 377.118C137.173 371.456 136.608 365.789 136.123 360.116C135.972 358.273 135.858 356.278 136.865 354.727C138.131 352.829 140.601 352.232 142.855 351.864C152.414 350.301 162.098 349.628 171.782 349.857C175.461 346.178 181.527 346.159 186.346 344.158C188.119 343.343 189.835 342.41 191.482 341.365C200.102 336.336 209.735 333.292 219.68 332.455C221.628 332.396 223.563 332.12 225.449 331.632C229.178 330.474 232.579 327.32 236.41 328.093C236.885 326.782 237.214 325.027 238.309 324.128C238.851 323.666 239.524 323.356 240.025 322.862C241.082 321.792 241.177 320.107 241.018 318.613C240.86 317.119 240.505 315.586 240.892 314.129C241.052 313.578 241.289 313.051 241.595 312.565C243.488 309.289 246.356 307.605 250.175 307.922Z" fill="#2F2E41"/>
<path d="M102.195 202.373C101.579 203.019 101.1 203.784 100.79 204.621C95.6713 216.157 92.6479 228.512 91.8614 241.108C91.8752 241.723 91.7336 242.33 91.4498 242.875C91.17 243.238 90.8585 243.575 90.519 243.882C90.223 244.233 89.999 244.639 89.8598 245.076C89.7206 245.514 89.669 245.974 89.7078 246.432C89.7466 246.889 89.8751 247.334 90.086 247.742C90.297 248.15 90.5861 248.512 90.937 248.808C90.9946 248.857 91.0536 248.903 91.1142 248.948C92.159 246.982 94.6601 246.339 96.8833 246.168C107.528 245.326 117.925 250.278 128.602 249.905C127.849 247.302 126.765 244.801 126.151 242.167C123.434 230.471 130.21 217.736 126.056 206.471C125.226 204.217 123.84 202 121.655 201.012C120.751 200.648 119.804 200.397 118.837 200.267C116.14 199.779 110.769 197.696 108.161 198.532C107.198 198.842 106.819 199.747 106.021 200.294C104.808 201.069 103.2 201.353 102.195 202.373Z" fill="#AABC8F"/>
<path d="M250.026 241.022C246.815 239.648 240.742 240.49 237.228 240.389C232.397 240.275 227.293 240.788 223.329 243.555C218.51 246.926 216.293 253.111 216.331 258.994C216.369 264.877 218.345 270.549 220.46 276.041C221.638 279.137 222.879 282.208 223.291 285.47C223.291 285.47 181.173 290.463 178.631 292.511C176.088 294.559 174.952 298.657 176.902 301.19C178.852 303.723 239.694 306.266 247.705 304.571C248.375 304.588 249.026 304.338 249.512 303.876C249.999 303.414 250.283 302.778 250.301 302.108C251.11 297.384 251.763 292.654 252.199 287.885C252.43 285.428 252.599 282.971 252.769 280.508L254.589 254.374C254.792 252.535 254.767 250.678 254.513 248.846C254.039 246.358 252.566 242.141 250.026 241.022Z" fill="#FBBEBE"/>
<path d="M240.079 200.294C239.281 199.747 238.902 198.842 237.939 198.532C235.331 197.696 229.96 199.779 227.263 200.267C226.296 200.397 225.349 200.648 224.445 201.012C222.26 202 220.874 204.217 220.044 206.471C215.89 217.736 222.666 230.471 219.949 242.167C219.335 244.801 218.251 247.302 217.498 249.905C228.175 250.278 238.572 245.326 249.217 246.168C251.44 246.339 253.941 246.982 254.986 248.948C255.046 248.903 255.105 248.857 255.163 248.808C255.514 248.512 255.803 248.15 256.014 247.742C256.225 247.334 256.353 246.889 256.392 246.432C256.431 245.974 256.379 245.514 256.24 245.076C256.101 244.639 255.877 244.233 255.581 243.882C255.242 243.575 254.93 243.238 254.65 242.875C254.366 242.33 254.225 241.723 254.239 241.108C253.452 228.512 250.429 216.157 245.31 204.621C245 203.784 244.521 203.019 243.905 202.373C242.9 201.353 241.292 201.069 240.079 200.294Z" fill="#AABC8F"/>
<path d="M257.885 371.848L256.034 385.776L201.43 385.264L204.162 364.707L257.885 371.848Z" fill="#FFB6B6"/>
<path d="M271.858 370.089L265.889 415L265.321 414.924C260.685 414.308 256.484 411.876 253.641 408.162C250.799 404.448 249.548 399.757 250.164 395.121L250.164 395.12L253.81 367.69L271.858 370.089Z" fill="#2F2E41"/>
<path d="M129.423 314.97C129.423 315.603 128.429 314.97 128.338 314.292C127.642 309.169 123.576 304.945 118.839 302.894C114.103 300.842 108.707 300.734 103.578 301.222C95.8215 301.956 87.1141 304.926 84.2774 312.177C83.6061 313.872 77.3184 328.964 77.932 332.358C79.585 341.413 85.7778 349.158 93.2818 354.522C100.786 359.885 109.554 363.089 118.3 365.98C141.423 373.606 165.148 379.272 189.223 382.919C193.123 383.508 197.062 384.052 200.798 385.306C204.141 386.427 207.269 388.105 210.537 389.422C218.136 392.473 226.311 393.563 234.41 394.634C235.79 394.811 237.374 394.937 238.393 394C239.711 392.78 239.275 390.651 238.9 388.897C237.525 382.227 238.679 375.285 242.136 369.418C243.492 367.139 245.255 364.802 244.998 362.164C244.695 359.086 241.629 356.908 238.577 356.414C235.525 355.92 232.422 356.648 229.356 357.047C228.306 357.288 227.205 357.179 226.222 356.737C225.766 356.429 225.353 356.063 224.993 355.648C222.882 353.611 220.18 352.295 217.274 351.889C214.369 351.483 211.41 352.007 208.821 353.387C207.687 354.02 205.973 352.608 204.793 352.077L191.476 346.048C176.177 339.127 160.802 332.173 144.617 327.792C143.325 327.538 142.098 327.027 141.007 326.29C140.203 325.657 139.627 324.799 138.886 324.093C137.271 322.567 135.021 321.959 133.085 320.876C131.15 319.793 128.979 317.142 129.423 314.97Z" fill="#2F2E41"/>
<path d="M163.897 305.819C169.139 305.819 173.389 301.569 173.389 296.327C173.389 291.085 169.139 286.835 163.897 286.835C158.655 286.835 154.405 291.085 154.405 296.327C154.405 301.569 158.655 305.819 163.897 305.819Z" fill="#FBBEBE"/>
<path d="M184.915 305.819C190.157 305.819 194.407 301.569 194.407 296.327C194.407 291.085 190.157 286.835 184.915 286.835C179.673 286.835 175.423 291.085 175.423 296.327C175.423 301.569 179.673 305.819 184.915 305.819Z" fill="#FBBEBE"/>
<path d="M243.506 317.716H113.102C111.579 317.714 110.12 317.109 109.043 316.032C107.966 314.956 107.361 313.496 107.359 311.973V232.861C107.361 231.338 107.966 229.878 109.043 228.802C110.12 227.725 111.579 227.12 113.102 227.118H243.506C245.029 227.12 246.488 227.725 247.565 228.802C248.641 229.878 249.247 231.338 249.249 232.861V311.973C249.247 313.496 248.641 314.956 247.565 316.032C246.488 317.109 245.029 317.714 243.506 317.716Z" fill="#3F3D56"/>
<path d="M177.988 276.216C180.086 276.216 181.787 274.515 181.787 272.417C181.787 270.318 180.086 268.617 177.988 268.617C175.889 268.617 174.188 270.318 174.188 272.417C174.188 274.515 175.889 276.216 177.988 276.216Z" fill="white"/>
</g>
</svg>
