<svg width="465" height="434" viewBox="0 0 465 434" fill="none" xmlns="http://www.w3.org/2000/svg">
<g clip-path="url(#clip0_9_416)">
<path d="M313.443 307.371H146.635C132.613 307.371 121.207 295.965 121.207 281.943V115.135C121.207 101.114 132.613 89.7073 146.635 89.7073H313.443C327.464 89.7073 338.871 101.114 338.871 115.135V281.943C338.871 295.965 327.464 307.371 313.443 307.371ZM146.635 93.7758C134.838 93.7758 125.275 103.339 125.275 115.135V281.943C125.275 293.74 134.838 303.303 146.635 303.303H263.479C302.87 303.303 334.802 271.371 334.802 231.98V115.135C334.802 103.339 325.239 93.7758 313.443 93.7758L146.635 93.7758Z" fill="#F2F2F2"/>
<path d="M164.618 111.122C156.723 111.122 150.301 117.544 150.301 125.439V147.849C150.301 155.744 156.723 162.167 164.618 162.167H187.028C194.923 162.167 201.345 155.744 201.345 147.849V125.439C201.345 117.544 194.923 111.122 187.028 111.122H164.618Z" fill="#F2F2F2"/>
<path d="M164.618 174.209C156.723 174.209 150.301 180.631 150.301 188.526V210.936C150.301 218.831 156.723 225.253 164.618 225.253H187.028C194.923 225.253 201.345 218.831 201.345 210.936V188.526C201.345 180.631 194.923 174.209 187.028 174.209H164.618Z" fill="#F2F2F2"/>
<path d="M164.618 237.295C156.723 237.295 150.301 243.718 150.301 251.613V274.023C150.301 281.918 156.723 288.34 164.618 288.34H187.028C194.923 288.34 201.345 281.918 201.345 274.023V251.613C201.345 243.718 194.923 237.295 187.028 237.295H164.618Z" fill="#F2F2F2"/>
<path d="M179.479 56.4468C169.531 56.4468 161.438 64.5394 161.438 74.4872V102.724C161.438 112.672 169.531 120.765 179.479 120.765H207.716C217.664 120.765 225.756 112.672 225.756 102.724V74.4872C225.756 64.5394 217.664 56.4468 207.716 56.4468H179.479Z" fill="#AABC8F"/>
<path d="M272.443 135.358C262.495 135.358 254.402 143.45 254.402 153.398V181.635C254.402 191.583 262.495 199.676 272.443 199.676H300.68C310.627 199.676 318.72 191.583 318.72 181.635V153.398C318.72 143.45 310.627 135.358 300.68 135.358H272.443Z" fill="#AABC8F"/>
<path d="M232.027 419.576L226.29 419.527L223.751 396.885L232.217 396.957L232.027 419.576Z" fill="#A0616A"/>
<path d="M213.652 428.697C213.64 430.109 214.778 431.272 216.195 431.285L227.6 431.38L229.597 427.333L230.33 431.4L234.634 431.439L233.547 416.931L232.05 416.831L225.943 416.41L223.973 416.278L223.938 420.383L214.776 426.598C214.079 427.071 213.659 427.856 213.652 428.697Z" fill="#2F2E41"/>
<path d="M261.213 419.576L255.476 419.527L252.937 396.885L261.403 396.957L261.213 419.576Z" fill="#A0616A"/>
<path d="M242.838 428.697C242.826 430.109 243.964 431.272 245.381 431.285L256.787 431.38L258.783 427.333L259.517 431.4L263.82 431.439L262.733 416.931L261.236 416.831L255.129 416.41L253.159 416.278L253.124 420.383L243.962 426.598C243.265 427.071 242.845 427.856 242.838 428.697Z" fill="#2F2E41"/>
<path d="M209.516 236.515L232.769 237.249L254.797 242.145C254.797 242.145 252.594 244.837 259.937 252.18C259.937 252.18 269.728 269.313 262.875 285.957L259.937 352.533C259.937 352.533 268.501 399.464 261.958 414.401L253.31 414.941L238.677 353.074L231.545 286.447L228.118 352.043C228.118 352.043 241.227 397.067 232.949 414.941L223.583 414.401L207.558 352.043C207.558 352.043 200.705 280.083 201.684 266.376C202.663 252.669 209.516 236.515 209.516 236.515Z" fill="#2F2E41"/>
<path d="M287.603 131.315C284.425 132.138 282.515 135.382 283.338 138.561C283.715 140.018 284.604 141.203 285.758 141.985L285.758 141.993L285.307 152.916L293.665 156.784L294.333 139.976L294.274 139.978C294.999 138.687 295.25 137.127 294.849 135.58C294.026 132.402 290.782 130.492 287.603 131.315Z" fill="#A0616A"/>
<path d="M240.889 170.296C239.133 168.556 238.114 166.196 238.076 163.63C238.025 160.188 239.75 157.064 242.69 155.273C246.077 153.211 250.311 153.419 253.478 155.804L279.725 175.566L284.401 147.097L294.442 150.33L292.046 187.399C291.879 189.992 290.413 192.277 288.126 193.51C285.839 194.743 283.125 194.712 280.867 193.427L242.937 171.847C242.175 171.414 241.488 170.891 240.889 170.296Z" fill="#3F3D56"/>
<path d="M200.868 115.391C202.545 118.214 201.617 121.862 198.795 123.54C197.502 124.309 196.036 124.525 194.665 124.268L194.66 124.274L187.29 132.347L178.631 129.21L189.991 116.804L190.031 116.846C190.425 115.419 191.346 114.135 192.719 113.319C195.541 111.641 199.19 112.569 200.868 115.391Z" fill="#A0616A"/>
<path d="M204.051 175.623L161.921 164.243C159.413 163.565 157.464 161.676 156.708 159.19C155.952 156.704 156.52 154.05 158.226 152.091L182.624 124.079L192.03 128.853L175.308 152.363L207.86 156.808C211.788 157.344 214.942 160.177 215.895 164.026C216.722 167.368 215.747 170.801 213.288 173.21C211.454 175.005 209.069 175.963 206.597 175.963C205.752 175.963 204.897 175.851 204.051 175.623Z" fill="#3F3D56"/>
<path d="M264.114 246.309L205.201 249.012C203.583 246.555 204.021 242.86 206.287 238.234C214.843 220.765 208.345 187.718 203.974 170.51C202.748 165.682 206.04 160.883 210.996 160.387L216.551 159.832L221.686 144.157H239.669L247.129 152.681L259.79 160.372C257.485 184.11 247.666 217.63 261.655 234.44C264.715 238.117 265.582 242.093 264.114 246.309Z" fill="#3F3D56"/>
<path d="M228.39 144.52C238.063 144.52 245.906 136.677 245.906 127.004C245.906 117.33 238.063 109.488 228.39 109.488C218.716 109.488 210.874 117.33 210.874 127.004C210.874 136.677 218.716 144.52 228.39 144.52Z" fill="#A0616A"/>
<path d="M248.21 115.792C250.647 106.907 224.087 99.2877 218.925 106.443C218.207 105.426 215.555 104.808 214.338 105.12C213.121 105.432 212.098 106.212 211.099 106.967C209.726 108.022 208.303 109.114 207.461 110.63C206.612 112.141 206.481 114.2 207.623 115.511C208.528 116.553 210.118 122.092 211.478 122.366C212.427 122.56 213.226 122.716 213.912 122.828C214.524 121.936 216.084 120.814 215.971 119.735C216.895 120.346 216.558 121.422 216.371 122.522C215.751 126.184 201.78 154.533 209.782 146.179C210.575 146.647 211.555 147.084 212.684 147.483C214.6 144.594 216.173 141.186 217.209 137.623L217.216 137.688C217.573 140.785 219.836 143.326 222.83 144.194C234.842 147.674 244.557 142.568 247.9 133.36C246.676 130.876 246.143 131.146 246.253 131.072C247.78 130.042 249.879 130.716 250.536 132.437C250.729 132.944 250.905 133.377 251.057 133.703C252.799 127.475 254.87 128.374 248.21 115.792Z" fill="#2F2E41"/>
<path d="M239.924 109.345L238.697 103.073C238.594 102.545 238.496 101.973 238.734 101.492C239.04 100.873 239.825 100.616 240.508 100.715C241.191 100.813 241.702 101.437 242.382 101.558C244.746 101.975 247.87 99.6409 248.716 105.547C249.07 108.009 252.999 108.269 254.311 110.382C255.623 112.496 255.784 115.546 253.993 117.272C252.563 118.651 250.266 118.81 248.409 118.106C246.551 117.402 245.06 115.979 243.758 114.479C242.456 112.978 241.276 111.355 239.774 110.055" fill="#2F2E41"/>
<path d="M249.146 118.886C244.353 118.216 241.086 116.473 239.436 113.705C237.276 110.082 238.723 106.092 238.785 105.924L239.799 106.301C239.785 106.338 238.473 109.99 240.37 113.161C241.846 115.628 244.849 117.194 249.295 117.815L249.146 118.886Z" fill="#D9BE9A"/>
<path d="M271.638 51.1106C257.548 51.1106 246.083 39.6457 246.083 25.5553C246.083 11.4649 257.548 0 271.638 0C285.728 0 297.193 11.4649 297.193 25.5553C297.193 39.6457 285.728 51.1106 271.638 51.1106ZM271.638 10.2221C263.183 10.2221 256.305 17.1001 256.305 25.5553C256.305 34.0105 263.183 40.8885 271.638 40.8885C280.093 40.8885 286.971 34.0105 286.971 25.5553C286.971 17.1001 280.093 10.2221 271.638 10.2221Z" fill="#AABC8F"/>
<path d="M310.957 68.4777C309.704 68.4777 308.449 68.021 307.463 67.0951L283.477 44.6169C281.416 42.6878 281.311 39.4535 283.243 37.3946C285.169 35.3282 288.404 35.2259 290.465 37.16L314.451 59.6382C316.512 61.5673 316.617 64.8016 314.685 66.8605C313.679 67.9362 312.319 68.4777 310.957 68.4777Z" fill="#AABC8F"/>
<path d="M419.36 419.002C421.098 419.111 422.058 416.952 420.743 415.693L420.612 415.173C420.63 415.132 420.647 415.09 420.664 415.048C422.422 410.858 428.378 410.887 430.12 415.084C431.667 418.808 433.636 422.539 434.121 426.478C434.338 428.216 434.24 429.987 433.854 431.693C437.478 423.778 439.385 415.134 439.385 406.441C439.385 404.257 439.265 402.073 439.021 399.895C438.82 398.112 438.543 396.341 438.184 394.587C436.245 385.101 432.045 376.066 425.987 368.519C423.075 366.928 420.647 364.439 419.18 361.457C418.653 360.381 418.24 359.224 418.045 358.045C418.376 358.088 419.294 353.041 419.044 352.731C419.506 352.03 420.333 351.682 420.837 350.998C423.346 347.597 426.802 348.191 428.606 352.813C432.461 354.758 432.498 357.984 430.133 361.087C428.628 363.061 428.421 365.732 427.101 367.846C427.237 368.02 427.378 368.188 427.514 368.362C430.005 371.556 432.159 374.99 433.975 378.598C433.462 374.588 434.22 369.758 435.511 366.645C436.982 363.098 439.738 360.11 442.165 357.043C445.081 353.36 451.059 354.967 451.573 359.637C451.578 359.682 451.583 359.727 451.587 359.772C451.227 359.976 450.874 360.192 450.529 360.42C448.561 361.721 449.241 364.772 451.573 365.132L451.625 365.14C451.495 366.439 451.272 367.726 450.946 368.992C454.06 381.034 447.338 385.42 437.739 385.617C437.527 385.725 437.32 385.834 437.109 385.937C438.081 388.675 438.858 391.484 439.434 394.331C439.95 396.847 440.309 399.389 440.51 401.943C440.76 405.164 440.738 408.402 440.466 411.619L440.482 411.505C441.172 407.962 443.096 404.654 445.888 402.361C450.048 398.944 455.926 397.685 460.414 394.938C462.574 393.616 465.342 395.325 464.965 397.83L464.947 397.95C464.279 398.221 463.627 398.536 462.997 398.889C462.636 399.093 462.283 399.309 461.938 399.537C459.97 400.838 460.65 403.889 462.982 404.249L463.035 404.257C463.073 404.263 463.105 404.268 463.143 404.273C461.997 406.995 460.4 409.522 458.4 411.7C456.453 422.212 448.091 423.21 439.146 420.148H439.141C438.163 424.408 436.734 428.569 434.897 432.535H419.74C419.685 432.367 419.636 432.193 419.587 432.025C420.989 432.112 422.402 432.03 423.782 431.775C422.657 430.395 421.532 429.004 420.408 427.624C420.381 427.597 420.359 427.57 420.337 427.543C419.767 426.836 419.191 426.135 418.62 425.429L418.62 425.428C418.584 423.26 418.845 421.099 419.36 419.002Z" fill="#F2F2F2"/>
<path d="M0 432.581C0 433.136 0.445838 433.582 1.00103 433.582H463.881C464.436 433.582 464.882 433.136 464.882 432.581C464.882 432.025 464.436 431.58 463.881 431.58H1.00103C0.445838 431.58 0 432.025 0 432.581Z" fill="#CCCCCC"/>
</g>
<defs>
<clipPath id="clip0_9_416">
<rect width="465" height="433.582" fill="white"/>
</clipPath>
</defs>
</svg>
